<?xml version="1.0" encoding="utf-8"?>
<!-- Generator: Adobe Illustrator 27.0.1, SVG Export Plug-In . SVG Version: 6.00 Build 0)  -->
<svg version="1.1" id="Capa_1" xmlns="http://www.w3.org/2000/svg" xmlns:xlink="http://www.w3.org/1999/xlink" x="0px" y="0px"
	 viewBox="0 0 71.61 28" style="enable-background:new 0 0 71.61 28;" xml:space="preserve">
<style type="text/css">
	.st0{fill:#FFFFFF;}
</style>
<g>
	<g>
		<g>
			<g>
				<g>
					<g>
						<path class="st0" d="M61.1,10.08c0-1.64-1.26-1.98-2.61-1.98h-3.56v4.04h3.85C60.11,12.13,61.1,11.53,61.1,10.08 M61.8,17.19
							c0-1.77-1.11-2.47-2.73-2.47h-4.14v4.74H59C60.5,19.46,61.8,18.98,61.8,17.19 M62.43,13.03c2.1,0.6,3.17,2.23,3.17,4.38
							c0,3.51-2.98,5.01-6.1,5.01h-8.37V5.14h8.13c3.29,0,5.52,1.07,5.52,4.28C64.78,11.12,63.93,12.3,62.43,13.03 M71.61,14
							c0-7.73-6.27-14-14-14c-7.73,0-14,6.27-14,14s6.27,14,14,14C65.34,28,71.61,21.73,71.61,14"/>
					</g>
					<polygon class="st0" points="38.74,1.45 38.74,10.85 48.11,10.85 48.11,16.98 38.74,16.98 38.74,26.35 32.5,26.35 32.5,16.98 
						23.14,16.98 23.14,10.85 32.5,10.85 32.5,1.45 					"/>
					<polygon class="st0" points="21.24,1.44 0,26.3 8.13,26.3 29.38,1.44 					"/>
				</g>
			</g>
		</g>
	</g>
</g>
</svg>
