<?xml version="1.0" encoding="utf-8"?>
<!-- Generator: Adobe Illustrator 27.0.0, SVG Export Plug-In . SVG Version: 6.00 Build 0)  -->
<svg version="1.1" id="Capa_1" xmlns="http://www.w3.org/2000/svg" xmlns:xlink="http://www.w3.org/1999/xlink" x="0px" y="0px"
	 viewBox="0 0 249.45 51.99" style="enable-background:new 0 0 249.45 51.99;" xml:space="preserve">
<style type="text/css">
	.st0{fill:#FFFFFF;}
</style>
<g>
	<g>
		<g>
			<g>
				<g>
					<path class="st0" d="M93.74,8.58c-0.58,0.14-1.21,0.25-1.82,0.25c-2.59,0-4.39-1.3-4.39-4c0-2.74,1.67-4.28,4.39-4.28
						c0.53,0,1.23,0.1,1.81,0.33l-0.11,1.35C93,1.9,92.45,1.82,91.88,1.82c-1.65,0-2.68,1.26-2.68,2.9c0,1.63,1.01,2.86,2.72,2.86
						c0.63,0,1.37-0.14,1.75-0.33L93.74,8.58z"/>
					<path class="st0" d="M97.48,7.64c1.18,0,1.49-1.06,1.49-2.04c0-0.91-0.48-1.76-1.49-1.76c-1,0-1.48,0.87-1.48,1.76
						C96.01,6.57,96.31,7.64,97.48,7.64 M97.48,2.65c1.75,0,3.1,1.18,3.1,3.13c0,1.7-1.14,3.05-3.1,3.05
						c-1.95,0-3.08-1.35-3.08-3.05C94.4,3.83,95.74,2.65,97.48,2.65"/>
					<path class="st0" d="M101.78,2.79h1.46v0.8h0.02c0.48-0.68,1.14-0.94,1.94-0.94c1.4,0,2.01,0.99,2.01,2.32v3.72h-1.53V5.54
						c0-0.72-0.01-1.7-1-1.7c-1.11,0-1.35,1.21-1.35,1.96v2.89h-1.54V2.79z"/>
					<path class="st0" d="M112.3,4.03c-0.47-0.16-0.81-0.25-1.37-0.25c-0.41,0-0.91,0.15-0.91,0.65c0,0.94,2.67,0.34,2.67,2.48
						c0,1.38-1.23,1.93-2.48,1.93c-0.58,0-1.18-0.1-1.74-0.25l0.09-1.26c0.48,0.24,0.99,0.39,1.51,0.39c0.39,0,1.01-0.15,1.01-0.72
						c0-1.16-2.67-0.37-2.67-2.5c0-1.27,1.11-1.84,2.32-1.84c0.72,0,1.19,0.12,1.67,0.22L112.3,4.03z"/>
					<path class="st0" d="M116.58,7.64c1.18,0,1.49-1.06,1.49-2.04c0-0.91-0.48-1.76-1.49-1.76c-1,0-1.48,0.87-1.48,1.76
						C115.11,6.57,115.41,7.64,116.58,7.64 M116.58,2.65c1.75,0,3.1,1.18,3.1,3.13c0,1.7-1.14,3.05-3.1,3.05
						c-1.95,0-3.08-1.35-3.08-3.05C113.5,3.83,114.84,2.65,116.58,2.65"/>
					<path class="st0" d="M120.92,2.79h1.36v1.34h0.02c0.07-0.55,0.7-1.48,1.62-1.48c0.15,0,0.31,0,0.47,0.05v1.55
						c-0.14-0.08-0.41-0.13-0.69-0.13c-1.25,0-1.25,1.56-1.25,2.41v2.17h-1.54V2.79z"/>
					<path class="st0" d="M128.98,4.06c-0.27-0.13-0.57-0.22-1.04-0.22c-0.95,0-1.56,0.76-1.56,1.87c0,1.09,0.52,1.93,1.59,1.93
						c0.44,0,0.92-0.16,1.18-0.27l0.07,1.27c-0.45,0.14-0.9,0.2-1.54,0.2c-1.94,0-2.91-1.32-2.91-3.12c0-1.71,1.01-3.06,2.85-3.06
						c0.62,0,1.07,0.07,1.49,0.19L128.98,4.06z"/>
				</g>
				<path class="st0" d="M130.27,2.79h1.54v5.9h-1.54V2.79z M130.27,0.25h1.54v1.47h-1.54V0.25z"/>
				<g>
					<path class="st0" d="M141.05,2.16c-0.5-0.22-1.07-0.34-1.63-0.34c-0.55,0-1.26,0.24-1.26,1.11c0,1.39,3.51,0.8,3.51,3.49
						c0,1.75-1.39,2.42-3,2.42c-0.87,0-1.26-0.12-2.05-0.31l0.15-1.45c0.55,0.3,1.18,0.49,1.81,0.49c0.61,0,1.42-0.31,1.42-1.03
						c0-1.53-3.51-0.89-3.51-3.54c0-1.79,1.39-2.44,2.8-2.44c0.69,0,1.33,0.09,1.92,0.29L141.05,2.16z"/>
					<path class="st0" d="M145.05,7.71c0.47,0,0.84-0.21,1.08-0.53c0.25-0.33,0.32-0.76,0.32-1.21h-0.67
						c-0.69,0-1.71,0.11-1.71,1.02C144.07,7.49,144.5,7.71,145.05,7.71 M143.25,3.1c0.6-0.28,1.4-0.45,2.05-0.45
						c1.8,0,2.55,0.74,2.55,2.49V5.9c0,0.6,0.01,1.04,0.02,1.48c0.01,0.45,0.03,0.86,0.07,1.32h-1.35c-0.06-0.31-0.06-0.7-0.07-0.88
						h-0.02c-0.35,0.65-1.12,1.02-1.82,1.02c-1.04,0-2.06-0.63-2.06-1.76c0-0.88,0.42-1.4,1.01-1.69c0.58-0.29,1.34-0.34,1.98-0.34
						h0.85c0-0.95-0.42-1.27-1.33-1.27c-0.65,0-1.31,0.25-1.82,0.64L143.25,3.1z"/>
					<path class="st0" d="M149.36,2.79h1.46v0.8h0.02c0.48-0.68,1.14-0.94,1.94-0.94c1.4,0,2.01,0.99,2.01,2.32v3.72h-1.54V5.54
						c0-0.72-0.01-1.7-1-1.7c-1.11,0-1.35,1.21-1.35,1.96v2.89h-1.54V2.79z"/>
				</g>
				<path class="st0" d="M156.4,2.79h1.54v5.9h-1.54V2.79z M156.4,0.25h1.54v1.47h-1.54V0.25z"/>
				<g>
					<path class="st0" d="M160.06,3.91h-1.14V2.79h1.14V1.61l1.54-0.49v1.67h1.37v1.12h-1.37v2.75c0,0.5,0.14,0.98,0.72,0.98
						c0.27,0,0.54-0.06,0.7-0.16l0.05,1.21c-0.32,0.09-0.68,0.14-1.13,0.14c-1.21,0-1.87-0.74-1.87-1.91V3.91z"/>
					<path class="st0" d="M166.07,7.71c0.47,0,0.84-0.21,1.08-0.53c0.25-0.33,0.32-0.76,0.32-1.21h-0.67
						c-0.69,0-1.71,0.11-1.71,1.02C165.1,7.49,165.52,7.71,166.07,7.71 M164.27,3.1c0.6-0.28,1.4-0.45,2.05-0.45
						c1.8,0,2.55,0.74,2.55,2.49V5.9c0,0.6,0.01,1.04,0.02,1.48c0.01,0.45,0.03,0.86,0.07,1.32h-1.35c-0.06-0.31-0.06-0.7-0.07-0.88
						h-0.02c-0.35,0.65-1.12,1.02-1.82,1.02c-1.04,0-2.06-0.63-2.06-1.76c0-0.88,0.42-1.4,1.01-1.69c0.58-0.29,1.34-0.34,1.98-0.34
						h0.85c0-0.95-0.42-1.27-1.33-1.27c-0.65,0-1.31,0.25-1.82,0.64L164.27,3.1z"/>
					<path class="st0" d="M170.42,2.79h1.36v1.34h0.02c0.07-0.55,0.7-1.48,1.62-1.48c0.15,0,0.31,0,0.47,0.05v1.55
						c-0.14-0.08-0.41-0.13-0.69-0.13c-1.25,0-1.25,1.56-1.25,2.41v2.17h-1.54V2.79z"/>
				</g>
				<path class="st0" d="M174.88,2.79h1.54v5.9h-1.54V2.79z M174.88,0.25h1.54v1.47h-1.54V0.25z"/>
				<g>
					<path class="st0" d="M184.15,7.54c1.02,0,1.35-1.08,1.35-1.91c0-0.83-0.39-1.88-1.38-1.88c-1,0-1.27,1.09-1.27,1.88
						C182.85,6.44,183.14,7.54,184.15,7.54 M185.56,7.93h-0.02c-0.46,0.57-1.09,0.8-1.81,0.8c-1.81,0-2.48-1.49-2.48-3.11
						c0-1.63,0.66-3.07,2.48-3.07c0.77,0,1.31,0.26,1.77,0.83h0.02V0h1.54v8.6h-1.49V7.93z"/>
					<path class="st0" d="M192.33,5.07c-0.05-0.74-0.39-1.39-1.25-1.39c-0.86,0-1.3,0.6-1.36,1.39H192.33z M193.37,8.26
						c-0.56,0.31-1.2,0.47-2.03,0.47c-1.95,0-3.08-1.12-3.08-3.06c0-1.71,0.91-3.12,2.74-3.12c2.19,0,2.81,1.5,2.81,3.56h-4.08
						c0.07,0.95,0.73,1.49,1.68,1.49c0.75,0,1.39-0.28,1.96-0.6V8.26z"/>
					<path class="st0" d="M199.93,7.34h0.76c0.74,0,1.65-0.18,1.65-1.11c0-1.04-0.85-1.2-1.65-1.2h-0.76V7.34z M199.93,3.83h0.65
						c0.68,0,1.51-0.15,1.51-0.97c0-0.93-0.81-1-1.55-1h-0.62V3.83z M198.33,0.6h2.8c1.03,0,2.58,0.3,2.58,2.05
						c0,0.95-0.64,1.62-1.59,1.79v0.02c1.09,0.1,1.83,0.84,1.83,1.82c0,2.02-1.81,2.32-2.82,2.32h-2.8V0.6z"/>
					<path class="st0" d="M207.26,7.61c0.47,0,0.84-0.21,1.08-0.53c0.25-0.33,0.32-0.76,0.32-1.21h-0.67
						c-0.69,0-1.71,0.11-1.71,1.02C206.29,7.39,206.71,7.61,207.26,7.61 M205.46,3c0.6-0.28,1.4-0.45,2.05-0.45
						c1.8,0,2.55,0.74,2.55,2.49V5.8c0,0.6,0.01,1.04,0.02,1.48c0.01,0.45,0.03,0.86,0.07,1.32h-1.35c-0.06-0.31-0.06-0.7-0.07-0.88
						h-0.02c-0.35,0.65-1.12,1.02-1.82,1.02c-1.04,0-2.06-0.63-2.06-1.75c0-0.88,0.42-1.4,1.01-1.69c0.58-0.29,1.34-0.34,1.98-0.34
						h0.85c0-0.95-0.42-1.27-1.33-1.27c-0.65,0-1.31,0.25-1.82,0.64L205.46,3z"/>
					<path class="st0" d="M211.61,2.69h1.36v1.34h0.02c0.07-0.55,0.7-1.48,1.62-1.48c0.15,0,0.31,0,0.47,0.05v1.55
						c-0.14-0.08-0.41-0.13-0.69-0.13c-1.25,0-1.25,1.56-1.25,2.41V8.6h-1.54V2.69z"/>
					<path class="st0" d="M219.66,3.97c-0.27-0.13-0.57-0.22-1.04-0.22c-0.95,0-1.56,0.76-1.56,1.87c0,1.09,0.52,1.93,1.59,1.93
						c0.44,0,0.92-0.16,1.18-0.27l0.07,1.27c-0.45,0.14-0.9,0.2-1.53,0.2c-1.94,0-2.91-1.32-2.91-3.12c0-1.71,1.01-3.06,2.85-3.06
						c0.62,0,1.07,0.07,1.49,0.19L219.66,3.97z"/>
					<path class="st0" d="M224.63,5.07c-0.05-0.74-0.39-1.39-1.25-1.39c-0.86,0-1.29,0.6-1.36,1.39H224.63z M225.66,8.26
						c-0.56,0.31-1.21,0.47-2.03,0.47c-1.95,0-3.08-1.12-3.08-3.06c0-1.71,0.91-3.12,2.74-3.12c2.19,0,2.81,1.5,2.81,3.56h-4.08
						c0.07,0.95,0.73,1.49,1.68,1.49c0.75,0,1.39-0.28,1.96-0.6V8.26z"/>
				</g>
				<rect x="227.33" class="st0" width="1.53" height="8.6"/>
				<g>
					<path class="st0" d="M233.19,7.54c1.18,0,1.49-1.05,1.49-2.04c0-0.91-0.48-1.75-1.49-1.75c-1,0-1.48,0.87-1.48,1.75
						C231.71,6.48,232.02,7.54,233.19,7.54 M233.19,2.56c1.75,0,3.1,1.18,3.1,3.13c0,1.7-1.14,3.05-3.1,3.05
						c-1.95,0-3.08-1.35-3.08-3.05C230.11,3.74,231.45,2.56,233.19,2.56"/>
					<path class="st0" d="M237.49,2.69h1.46v0.8h0.02c0.48-0.68,1.14-0.94,1.94-0.94c1.4,0,2.01,0.99,2.01,2.32V8.6h-1.54V5.45
						c0-0.72-0.01-1.7-1-1.7c-1.11,0-1.35,1.2-1.35,1.96V8.6h-1.54V2.69z"/>
					<path class="st0" d="M246.56,7.61c0.47,0,0.84-0.21,1.08-0.53c0.25-0.33,0.32-0.76,0.32-1.21h-0.67
						c-0.69,0-1.71,0.11-1.71,1.02C245.59,7.39,246.01,7.61,246.56,7.61 M244.76,3c0.6-0.28,1.4-0.45,2.05-0.45
						c1.8,0,2.55,0.74,2.55,2.49V5.8c0,0.6,0.01,1.04,0.02,1.48c0.01,0.45,0.03,0.86,0.07,1.32h-1.35c-0.06-0.31-0.06-0.7-0.07-0.88
						H248c-0.35,0.65-1.12,1.02-1.82,1.02c-1.04,0-2.06-0.63-2.06-1.75c0-0.88,0.42-1.4,1.01-1.69c0.58-0.29,1.34-0.34,1.98-0.34
						h0.85c0-0.95-0.42-1.27-1.33-1.27c-0.65,0-1.31,0.25-1.82,0.64L244.76,3z"/>
					<path class="st0" d="M66.98,7.02h0.8c0.56,0,1.17-0.21,1.17-0.83c0-0.69-0.57-0.82-1.15-0.82h-0.82V7.02z M66.98,3.73h0.77
						c0.54,0,1.12-0.16,1.12-0.77c0-0.6-0.5-0.78-1.05-0.78h-0.84V3.73z M64.09,0.66h5.03c1.39,0,2.75,0.45,2.75,1.97
						c0,1.1-0.58,1.69-1.65,1.96v0.02c1.11,0.15,1.8,1.02,1.8,1.82c0,2.02-1.63,2.22-3.29,2.22h-4.64V0.66z"/>
					<path class="st0" d="M56.94,2.86c-0.69-0.24-1.5-0.4-2.37-0.4c-0.48,0-1.32,0.01-1.32,0.53c0,1.04,4.21,0.06,4.21,3.14
						c0,2.14-2.12,2.68-3.9,2.68c-1.18,0-2.16-0.11-3.3-0.38V6.36c0.83,0.34,1.84,0.53,2.75,0.53c0.72,0,1.38-0.15,1.38-0.55
						c0-1.08-4.21-0.1-4.21-3.21c0-2.2,2.29-2.59,4.12-2.59c0.86,0,1.81,0.1,2.65,0.28V2.86z"/>
					<path class="st0" d="M44,8.49c-0.57,0.16-1.42,0.32-2.2,0.32c-2.66,0-4.79-1.4-4.79-4.25c0-2.68,2.23-4.02,4.79-4.02
						c0.85,0,1.35,0.1,2.18,0.25v2.11c-0.5-0.16-1.02-0.3-1.53-0.3c-1.31,0-2.29,0.7-2.29,2.01c0,1.37,0.92,2.07,2.19,2.07
						c0.56,0,1.1-0.11,1.66-0.31V8.49z"/>
				</g>
			</g>
			<g>
				<g>
					<path class="st0" d="M62.29,33.72c0-1.68-1.28-2.02-2.66-2.02H56v4.12h3.92C61.28,35.82,62.29,35.2,62.29,33.72 M63,40.97
						c0-1.8-1.13-2.52-2.79-2.52H56v4.83h4.14C61.67,43.29,63,42.79,63,40.97 M63.65,36.73c2.15,0.62,3.23,2.27,3.23,4.46
						c0,3.58-3.03,5.1-6.21,5.1h-8.53V28.69h8.29c3.35,0,5.62,1.09,5.62,4.37C66.04,34.78,65.18,35.99,63.65,36.73 M73,37.72
						c0-7.88-6.39-14.27-14.27-14.27c-7.88,0-14.27,6.39-14.27,14.27s6.39,14.27,14.27,14.27C66.61,51.99,73,45.6,73,37.72"/>
				</g>
				<polygon class="st0" points="39.49,24.92 39.49,34.51 49.04,34.51 49.04,40.76 39.49,40.76 39.49,50.31 33.13,50.31 
					33.13,40.76 23.59,40.76 23.59,34.51 33.13,34.51 33.13,24.92 				"/>
				<polygon class="st0" points="21.65,24.91 0,50.26 8.29,50.26 29.95,24.91 				"/>
				<g>
					<path class="st0" d="M92.58,27.23h-0.03l-1.5,4.29h3.04L92.58,27.23z M91.43,25.15h2.35l4.08,10.4h-2.31l-0.89-2.38h-4.22
						l-0.91,2.38h-2.16L91.43,25.15z"/>
					<g>
						<path class="st0" d="M103.65,31.63c0-1.31-0.51-2.38-1.67-2.38c-1.36,0-1.79,1.25-1.79,2.43c0,1.04,0.55,2.32,1.7,2.32
							C103.14,34,103.65,32.91,103.65,31.63 M105.65,27.87v6.93c0,2.09-0.83,4.05-4.05,4.05c-0.79,0-1.7-0.12-2.65-0.52l0.16-1.7
							c0.61,0.33,1.61,0.67,2.24,0.67c2.2,0,2.31-1.65,2.31-2.98h-0.03c-0.37,0.66-1.27,1.22-2.38,1.22c-2.26,0-3.13-1.82-3.13-3.87
							c0-1.85,0.95-3.98,3.25-3.98c1.01,0,1.8,0.34,2.35,1.22h0.03v-1.04H105.65z"/>
						<path class="st0" d="M112.08,30.96c-0.06-0.97-0.51-1.8-1.62-1.8c-1.12,0-1.69,0.77-1.77,1.8H112.08z M111.35,26.83h-1.24
							l-2.04-2.18h2.04L111.35,26.83z M113.42,35.11c-0.73,0.4-1.56,0.61-2.64,0.61c-2.53,0-4.01-1.46-4.01-3.98
							c0-2.22,1.18-4.05,3.56-4.05c2.85,0,3.65,1.95,3.65,4.63h-5.3c0.09,1.24,0.95,1.94,2.19,1.94c0.97,0,1.8-0.36,2.55-0.78V35.11
							z"/>
						<path class="st0" d="M115.12,27.87h1.89v1.04h0.03c0.63-0.88,1.48-1.22,2.52-1.22c1.82,0,2.61,1.28,2.61,3.01v4.84h-2v-4.1
							c0-0.94-0.02-2.21-1.3-2.21c-1.45,0-1.76,1.56-1.76,2.55v3.75h-2V27.87z"/>
						<path class="st0" d="M128.77,29.53c-0.36-0.16-0.74-0.28-1.35-0.28c-1.24,0-2.03,0.98-2.03,2.43c0,1.41,0.67,2.5,2.07,2.5
							c0.57,0,1.19-0.21,1.53-0.36l0.09,1.65c-0.58,0.18-1.18,0.25-2,0.25c-2.52,0-3.78-1.71-3.78-4.05c0-2.22,1.31-3.98,3.71-3.98
							c0.8,0,1.39,0.09,1.94,0.25L128.77,29.53z"/>
					</g>
					<path class="st0" d="M130.02,27.87h2v7.67h-2V27.87z M130.02,24.57h2v1.91h-2V24.57z"/>
					<g>
						<path class="st0" d="M136.36,34.27c0.61,0,1.09-0.27,1.4-0.69c0.33-0.43,0.42-0.98,0.42-1.58h-0.87
							c-0.89,0-2.22,0.15-2.22,1.33C135.1,33.98,135.65,34.27,136.36,34.27 M134.02,28.28c0.78-0.36,1.82-0.58,2.67-0.58
							c2.34,0,3.31,0.97,3.31,3.23v0.98c0,0.78,0.02,1.36,0.03,1.92c0.02,0.58,0.05,1.12,0.09,1.71h-1.76
							c-0.08-0.4-0.08-0.91-0.09-1.15h-0.03c-0.46,0.85-1.46,1.33-2.37,1.33c-1.36,0-2.68-0.82-2.68-2.28
							c0-1.15,0.55-1.82,1.31-2.19c0.76-0.37,1.74-0.45,2.58-0.45h1.1c0-1.24-0.55-1.65-1.73-1.65c-0.85,0-1.7,0.33-2.37,0.83
							L134.02,28.28z"/>
						<path class="st0" d="M91.55,49.07c1.33,0,1.76-1.4,1.76-2.49c0-1.07-0.51-2.44-1.79-2.44c-1.3,0-1.65,1.42-1.65,2.44
							C89.87,47.64,90.24,49.07,91.55,49.07 M93.38,49.58h-0.03c-0.6,0.74-1.42,1.04-2.35,1.04c-2.35,0-3.22-1.94-3.22-4.04
							c0-2.11,0.86-3.99,3.22-3.99c1,0,1.7,0.34,2.29,1.07h0.03v-4.4h2v11.17h-1.94V49.58z"/>
						<path class="st0" d="M101.76,45.85c-0.06-0.97-0.51-1.8-1.62-1.8c-1.12,0-1.69,0.77-1.77,1.8H101.76z M103.1,50.01
							c-0.73,0.4-1.56,0.61-2.64,0.61c-2.53,0-4.01-1.46-4.01-3.98c0-2.22,1.18-4.05,3.56-4.05c2.85,0,3.65,1.95,3.65,4.63h-5.3
							c0.09,1.24,0.95,1.94,2.19,1.94c0.97,0,1.8-0.36,2.55-0.78V50.01z"/>
						<path class="st0" d="M114.27,41.95c-0.66-0.28-1.39-0.45-2.11-0.45c-0.71,0-1.64,0.31-1.64,1.44c0,1.8,4.56,1.04,4.56,4.53
							c0,2.28-1.8,3.14-3.9,3.14c-1.13,0-1.64-0.15-2.67-0.4l0.19-1.88c0.72,0.39,1.53,0.64,2.35,0.64c0.79,0,1.85-0.4,1.85-1.34
							c0-1.98-4.56-1.16-4.56-4.6c0-2.32,1.8-3.17,3.64-3.17c0.89,0,1.73,0.12,2.49,0.37L114.27,41.95z"/>
						<path class="st0" d="M119.02,49.16c0.61,0,1.09-0.27,1.4-0.69c0.33-0.43,0.42-0.98,0.42-1.58h-0.87
							c-0.89,0-2.22,0.15-2.22,1.33C117.76,48.88,118.31,49.16,119.02,49.16 M116.68,43.17c0.78-0.36,1.82-0.58,2.67-0.58
							c2.34,0,3.31,0.97,3.31,3.23v0.98c0,0.78,0.02,1.36,0.03,1.92c0.02,0.58,0.05,1.12,0.09,1.71h-1.76
							c-0.08-0.4-0.08-0.91-0.09-1.15h-0.03c-0.46,0.85-1.46,1.33-2.37,1.33c-1.36,0-2.68-0.82-2.68-2.28
							c0-1.15,0.55-1.82,1.31-2.19c0.76-0.37,1.74-0.45,2.58-0.45h1.1c0-1.24-0.55-1.65-1.73-1.65c-0.85,0-1.7,0.33-2.37,0.83
							L116.68,43.17z"/>
					</g>
					<rect x="124.24" y="39.27" class="st0" width="2" height="11.17"/>
					<g>
						<path class="st0" d="M134.95,50.44h-1.89V49.4h-0.03c-0.61,0.75-1.48,1.22-2.52,1.22c-1.82,0-2.61-1.28-2.61-3.01v-4.84h2v4.1
							c0,0.94,0.02,2.2,1.3,2.2c1.45,0,1.76-1.56,1.76-2.55v-3.75h2V50.44z"/>
						<path class="st0" d="M137.23,44.23h-1.48v-1.46h1.48v-1.53l2-0.64v2.17H141v1.46h-1.77v3.58c0,0.66,0.18,1.27,0.94,1.27
							c0.36,0,0.7-0.07,0.91-0.21l0.06,1.58c-0.42,0.12-0.88,0.18-1.47,0.18c-1.57,0-2.43-0.97-2.43-2.49V44.23z"/>
						<path class="st0" d="M147.73,44.86h0.73c1.04,0,1.98-0.34,1.98-1.55s-0.91-1.62-1.98-1.62h-0.73V44.86z M145.64,40.04h2.64
							c2.26,0,4.34,0.66,4.34,3.14c0,2.43-1.77,3.31-4.01,3.31h-0.88v3.95h-2.09V40.04z"/>
						<path class="st0" d="M157.16,39.55h2.04l-2.04,2.18h-1.24L157.16,39.55z M160.54,50.44h-1.89V49.4h-0.03
							c-0.61,0.75-1.48,1.22-2.52,1.22c-1.82,0-2.61-1.28-2.61-3.01v-4.84h2v4.1c0,0.94,0.02,2.2,1.3,2.2
							c1.45,0,1.76-1.56,1.76-2.55v-3.75h2V50.44z"/>
						<path class="st0" d="M165.93,49.07c1.31,0,1.68-1.43,1.68-2.49c0-1.03-0.36-2.44-1.65-2.44c-1.28,0-1.79,1.37-1.79,2.44
							C164.18,47.67,164.61,49.07,165.93,49.07 M162.16,39.27h2v4.48h0.03c0.55-0.73,1.25-1.16,2.3-1.16c2.35,0,3.22,1.88,3.22,3.99
							c0,2.1-0.86,4.04-3.22,4.04c-0.85,0-1.77-0.3-2.35-1.12h-0.03v0.94h-1.94V39.27z"/>
					</g>
					<rect x="170.88" y="39.27" class="st0" width="2" height="11.17"/>
					<path class="st0" d="M174.59,42.77h2v7.67h-2V42.77z M174.59,39.46h2v1.91h-2V39.46z"/>
					<path class="st0" d="M183.23,44.42c-0.36-0.16-0.74-0.28-1.35-0.28c-1.24,0-2.03,0.98-2.03,2.43c0,1.41,0.67,2.5,2.07,2.5
						c0.57,0,1.19-0.21,1.53-0.36l0.09,1.65c-0.58,0.18-1.18,0.25-2,0.25c-2.52,0-3.78-1.71-3.78-4.05c0-2.22,1.31-3.98,3.71-3.98
						c0.8,0,1.39,0.09,1.94,0.25L183.23,44.42z"/>
					<path class="st0" d="M187.11,49.16c0.61,0,1.09-0.27,1.4-0.69c0.33-0.43,0.42-0.98,0.42-1.58h-0.87
						c-0.89,0-2.22,0.15-2.22,1.33C185.85,48.88,186.4,49.16,187.11,49.16 M184.78,43.17c0.78-0.36,1.82-0.58,2.67-0.58
						c2.34,0,3.31,0.97,3.31,3.23v0.98c0,0.78,0.02,1.36,0.03,1.92c0.02,0.58,0.05,1.12,0.09,1.71h-1.76
						c-0.07-0.4-0.07-0.91-0.09-1.15h-0.03c-0.46,0.85-1.46,1.33-2.37,1.33c-1.36,0-2.68-0.82-2.68-2.28c0-1.15,0.55-1.82,1.31-2.19
						c0.76-0.37,1.74-0.45,2.58-0.45h1.1c0-1.24-0.55-1.65-1.73-1.65c-0.85,0-1.7,0.33-2.37,0.83L184.78,43.17z"/>
				</g>
			</g>
		</g>
	</g>
</g>
</svg>
