<?xml version="1.0" encoding="utf-8"?>
<!-- Generator: Adobe Illustrator 28.0.0, SVG Export Plug-In . SVG Version: 6.00 Build 0)  -->
<svg version="1.1" id="Capa_1" xmlns="http://www.w3.org/2000/svg" xmlns:xlink="http://www.w3.org/1999/xlink" x="0px" y="0px"
	 viewBox="0 0 30 30" style="enable-background:new 0 0 30 30;" xml:space="preserve">
<style type="text/css">
	.st0{fill:none;}
	.st1{fill:#1D1D1F;}
</style>
<g>
	<g id="Grupo_2741" transform="translate(915 -1640) rotate(90)">
		<g id="Grupo_2643" transform="translate(-4273 -10)">
			<g id="Grupo_2639">
				<g id="Grupo_2635">
					<g id="Elipse_21" transform="translate(5913 895)">
						<circle class="st0" cx="15" cy="15" r="15"/>
						<path class="st1" d="M30,15c0,8.3-6.7,15-15,15S0,23.3,0,15S6.7,0,15,0S30,6.7,30,15z M1.5,15c0,7.4,6.1,13.5,13.5,13.5
							S28.5,22.4,28.5,15S22.4,1.5,15,1.5S1.5,7.6,1.5,15z"/>
					</g>
				</g>
			</g>
		</g>
	</g>
	<polygon class="st1" points="17.8,20.1 15.5,22.4 15.5,6.4 14,6.4 14,22.2 11.8,20 10.7,21 14.8,25.2 18.9,21.1 	"/>
</g>
</svg>
