<?xml version="1.0" encoding="utf-8"?>
<!-- Generator: Adobe Illustrator 27.0.0, SVG Export Plug-In . SVG Version: 6.00 Build 0)  -->
<svg version="1.1" id="Capa_1" xmlns="http://www.w3.org/2000/svg" xmlns:xlink="http://www.w3.org/1999/xlink" x="0px" y="0px"
	 width="34px" height="34px" viewBox="0 0 34 34" style="enable-background:new 0 0 34 34;" xml:space="preserve">
<g>
	<path d="M17,0C7.6,0,0,7.6,0,17s7.6,17,17,17c9.4,0,17-7.6,17-17S26.4,0,17,0z M11.2,25.5h-4V11.7h4V25.5z M9.2,10.1
		C8,10.1,7,9.2,7,7.9c0-1.2,0.9-2.2,2.2-2.2s2.2,1,2.2,2.2C11.3,9.1,10.4,10.1,9.2,10.1z M27,18.5v7h-4.3v-7v-1.3
		c0-1.2-1-2.2-2.2-2.2s-2.2,1-2.2,2.2v1.3v7h-4.3V11.4h3.7l0.5,1.8c0,0,2-2.6,5.7-1.5C27.4,12.7,27,18.5,27,18.5z"/>
</g>
</svg>
