<?xml version="1.0" encoding="utf-8"?>
<!-- Generator: Adobe Illustrator 27.0.0, SVG Export Plug-In . SVG Version: 6.00 Build 0)  -->
<svg version="1.1" id="Capa_1" xmlns="http://www.w3.org/2000/svg" xmlns:xlink="http://www.w3.org/1999/xlink" x="0px" y="0px"
	 width="34.4px" height="34px" viewBox="0 0 34.4 34" style="enable-background:new 0 0 34.4 34;" xml:space="preserve">
<g>
	<path d="M17.3,0c-9.4,0-17,7.6-17,17s7.6,17,17,17c9.4,0,17-7.6,17-17S26.7,0,17.3,0z M26.7,14.2c-0.5,6.3-4.2,9.5-4.2,9.5
		c-8.5,7.7-17.3,2-17.3,2c5.3-0.3,6.8-2.3,6.8-2.3C8.4,23,7.4,20,7.4,20c0.6,0.1,1.7-0.2,1.7-0.2c-4-1.7-3.4-5-3.4-5
		c0.9,0.5,1.7,0.4,1.7,0.4c-2.9-3-1.1-6.8-1.1-6.8s3,4.8,10.5,5.3c0.1,0,0.1,0,0.1,0c-0.2-0.6-0.3-1-0.3-1.6c0-2.8,2.2-5,5-5
		c1.5,0,3,0.7,3.9,1.9c1.2,0,3.1-0.9,3.1-0.9c-0.5,1.5-1.9,2.6-1.9,2.6l2.5-0.6L26.7,14.2z"/>
</g>
</svg>
