<?xml version="1.0" encoding="utf-8"?>
<!-- Generator: Adobe Illustrator 27.0.0, SVG Export Plug-In . SVG Version: 6.00 Build 0)  -->
<svg version="1.1" id="Capa_1" xmlns="http://www.w3.org/2000/svg" xmlns:xlink="http://www.w3.org/1999/xlink" x="0px" y="0px"
	 width="34px" height="34px" viewBox="0 0 34 34" style="enable-background:new 0 0 34 34;" xml:space="preserve">
<g>
	<path d="M34,17c0-9.4-7.6-17-17-17C7.6,0,0,7.6,0,17c0,8.3,5.9,15.2,13.7,16.7V20.9h-4c-0.2,0-0.4-0.1-0.3-0.4v-5
		c0-0.2,0.1-0.3,0.3-0.3h4v-4.1c0-1.7,0.6-3.3,1.9-4.4S18.4,5,20.1,5l4.2,0.1c0.2,0,0.3,0.2,0.3,0.3V10c0,0.2-0.1,0.3-0.3,0.3h-3
		c-0.6,0-1,0.1-1.3,0.4c-0.6,0.7-0.5,1.9-0.5,1.9v2.6H24c0.1,0,0.2,0,0.3,0.1c0.1,0.1,0.1,0.2,0.1,0.3l-0.6,5c0,0.2-0.1,0.3-0.3,0.3
		h-4v12.8c0,0,0,0,0,0.1C27.7,32.6,34,25.6,34,17z"/>
</g>
</svg>
